<?xml version="1.0" encoding="UTF-8" standalone="no"?>
<svg
   xmlns:dc="http://purl.org/dc/elements/1.1/"
   xmlns:cc="http://creativecommons.org/ns#"
   xmlns:rdf="http://www.w3.org/1999/02/22-rdf-syntax-ns#"
   xmlns:svg="http://www.w3.org/2000/svg"
   xmlns="http://www.w3.org/2000/svg"
   xmlns:sodipodi="http://sodipodi.sourceforge.net/DTD/sodipodi-0.dtd"
   xmlns:inkscape="http://www.inkscape.org/namespaces/inkscape"
   version="1.1"
   width="1370.525"
   height="435.93121"
   viewBox="0 0 1370.5251 435.93122"
   xml:space="preserve"
   id="svg407"
   sodipodi:docname="Icon &amp; Text (Horizontal).svg"
   inkscape:version="0.92.4 (5da689c313, 2019-01-14)"><metadata
   id="metadata411"><rdf:RDF><cc:Work
       rdf:about=""><dc:format>image/svg+xml</dc:format><dc:type
         rdf:resource="http://purl.org/dc/dcmitype/StillImage" /><dc:title></dc:title></cc:Work></rdf:RDF></metadata><sodipodi:namedview
   pagecolor="#ffffff"
   bordercolor="#666666"
   borderopacity="1"
   objecttolerance="10"
   gridtolerance="10"
   guidetolerance="10"
   inkscape:pageopacity="0"
   inkscape:pageshadow="2"
   inkscape:window-width="1920"
   inkscape:window-height="1011"
   id="namedview409"
   showgrid="false"
   fit-margin-top="0"
   fit-margin-left="0"
   fit-margin-right="0"
   fit-margin-bottom="0"
   inkscape:zoom="0.82226562"
   inkscape:cx="769.19719"
   inkscape:cy="214.54792"
   inkscape:window-x="-8"
   inkscape:window-y="-8"
   inkscape:window-maximized="1"
   inkscape:current-layer="svg407" />
<desc
   id="desc353">Created with Fabric.js 3.1.0</desc>
<defs
   id="defs355">
<filter
   id="SVGID_8812"
   y="-0.2"
   height="1.4"
   x="-0.2"
   width="1.4"><feGaussianBlur
     in="SourceAlpha"
     stdDeviation="0"
     id="feGaussianBlur388" /><feOffset
     dx="0"
     dy="0"
     result="oBlur"
     id="feOffset390" /><feFlood
     flood-color="rgb(0,0,0)"
     flood-opacity="1"
     id="feFlood392" /><feComposite
     in2="oBlur"
     operator="in"
     id="feComposite394" /><feMerge
     id="feMerge400"><feMergeNode
       id="feMergeNode396" /><feMergeNode
       in="SourceGraphic"
       id="feMergeNode398" /></feMerge></filter><filter
   id="SVGID_8811"
   y="-0.2"
   height="1.4"
   x="-0.2"
   width="1.4"><feGaussianBlur
     in="SourceAlpha"
     stdDeviation="0"
     id="feGaussianBlur369" /><feOffset
     dx="0"
     dy="0"
     result="oBlur"
     id="feOffset371" /><feFlood
     flood-color="rgb(0,0,0)"
     flood-opacity="1"
     id="feFlood373" /><feComposite
     in2="oBlur"
     operator="in"
     id="feComposite375" /><feMerge
     id="feMerge381"><feMergeNode
       id="feMergeNode377" /><feMergeNode
       in="SourceGraphic"
       id="feMergeNode379" /></feMerge></filter><filter
   id="SVGID_8812-7"
   y="-0.2"
   height="1.4"
   x="-0.2"
   width="1.4"><feGaussianBlur
     in="SourceAlpha"
     stdDeviation="0"
     id="feGaussianBlur388-5" /><feOffset
     dx="0"
     dy="0"
     result="oBlur"
     id="feOffset390-1" /><feFlood
     flood-color="rgb(0,0,0)"
     flood-opacity="1"
     id="feFlood392-6" /><feComposite
     in2="oBlur"
     operator="in"
     id="feComposite394-1" /><feMerge
     id="feMerge400-5"><feMergeNode
       id="feMergeNode396-1" /><feMergeNode
       in="SourceGraphic"
       id="feMergeNode398-4" /></feMerge></filter><filter
   id="SVGID_8811-9"
   y="-0.2"
   height="1.4"
   x="-0.2"
   width="1.4"><feGaussianBlur
     in="SourceAlpha"
     stdDeviation="0"
     id="feGaussianBlur369-2" /><feOffset
     dx="0"
     dy="0"
     result="oBlur"
     id="feOffset371-4" /><feFlood
     flood-color="rgb(0,0,0)"
     flood-opacity="1"
     id="feFlood373-7" /><feComposite
     in2="oBlur"
     operator="in"
     id="feComposite375-0" /><feMerge
     id="feMerge381-5"><feMergeNode
       id="feMergeNode377-2" /><feMergeNode
       in="SourceGraphic"
       id="feMergeNode379-0" /></feMerge></filter></defs>




<g
   id="g547"
   transform="translate(1.9703491e-6,-8.2215723e-6)"><g
     id="logo-logo"
     transform="matrix(1.5745008,0,0,1.5745008,177.70719,217.96561)">
	<g
   id="g362"
   transform="matrix(1.7431944,0,0,-1.7431944,0,-20.723897)">
<path
   inkscape:connector-curvature="0"
   id="path360"
   d="m 0,0 c 6.794,10.07 9.764,21.458 9.764,21.458 -10.008,-1.23 -20.644,-5.27 -20.644,-5.27 -0.939,3.504 -2.815,13.118 -2.815,13.118 -22.53,-30.138 -48.3,-51.894 -78.373,-71.469 -3.292,-2.408 -6.089,-4.172 -8.413,-5.367 -0.018,-0.011 -0.037,-0.023 -0.054,-0.035 l 0.015,0.014 c -12.995,-6.65 -11.166,4.678 1.307,22.007 2.578,-2.198 5.389,-4.494 8.404,-6.84 23.101,14.134 37.088,25.821 51.128,47.943 6.901,10.874 11.369,26.059 10.846,36.151 l -12.696,-6.089 c -1.396,7.08 -7.403,19.776 -12.826,26.01 -5.424,-6.234 -11.428,-18.93 -12.826,-26.01 l -10.947,4.616 c 0,0 3.442,-23.393 9.384,-40.322 0,0 -12.511,13.236 -26.273,19.391 0,0 -1.876,-9.614 -2.815,-13.118 0,0 -10.636,4.04 -20.644,5.27 0,0 2.972,-11.388 9.764,-21.458 0,0 -4.446,-2.899 -11.015,-5.572 0,0 4.134,-4.924 11.79,-12.148 -9.634,-15.246 -16.417,-34.403 -7.249,-42.93 7.998,-7.441 28.583,1.456 44.369,10.748 C -59.361,-43.743 -9.997,-10.862 0,0"
   transform="translate(54.9825,-4.1050599)"
   style="opacity:1;fill:#e62020;fill-rule:nonzero;stroke:none;stroke-width:1;stroke-linecap:butt;stroke-linejoin:miter;stroke-miterlimit:4;stroke-dasharray:none;stroke-dashoffset:0;paint-order:stroke" />
</g>
	<g
   id="g366"
   transform="matrix(1.7431944,0,0,-1.7431944,45.577653,69.792971)">
<path
   inkscape:connector-curvature="0"
   id="path364"
   d="M 0,0 H 23.392 C 23.122,21.085 27.579,39.047 46.728,53.712 60.675,64.394 70.222,74.117 74.5,78.754 64.264,70.925 49.164,63.227 30.357,51.074 -0.554,31.102 -0.337,9.852 0,0"
   transform="translate(-37.216753,-39.377)"
   style="opacity:1;fill:#e62020;fill-rule:nonzero;stroke:none;stroke-width:1;stroke-linecap:butt;stroke-linejoin:miter;stroke-miterlimit:4;stroke-dasharray:none;stroke-dashoffset:0;paint-order:stroke" />
</g>
</g><g
     id="g386"
     transform="matrix(1.5745008,0,0,1.5745008,654.50547,217.96561)"><filter
       width="1.4"
       x="-0.2"
       height="1.4"
       y="-0.2"
       id="filter135"><feGaussianBlur
         id="feGaussianBlur121"
         stdDeviation="0"
         in="SourceAlpha" /><feOffset
         id="feOffset123"
         result="oBlur"
         dy="0"
         dx="0" /><feFlood
         id="feFlood125"
         flood-opacity="1"
         flood-color="rgb(0,0,0)" /><feComposite
         id="feComposite127"
         operator="in"
         in2="oBlur" /><feMerge
         id="feMerge133"><feMergeNode
           id="feMergeNode129" /><feMergeNode
           id="feMergeNode131"
           in="SourceGraphic" /></feMerge></filter><path
       inkscape:connector-curvature="0"
       id="path384"
       d="M 15.62,0 H 2.89 V -25.85 H 14.1 q 2.73,0 4.68,0.52 1.95,0.52 3.05,1.5 1.1,0.97 1.6,2.22 0.51,1.26 0.51,2.87 v 0 q 0,0.93 -0.29,1.82 -0.29,0.89 -0.73,1.51 -0.43,0.62 -0.78,1.02 -0.36,0.4 -0.64,0.6 v 0 q 1.88,0.95 2.88,2.56 1,1.62 1,3.7 v 0 q 0,1.63 -0.54,2.96 -0.55,1.32 -1.67,2.37 -1.13,1.05 -3.05,1.62 Q 18.2,0 15.62,0 Z M 9.13,-10.37 v 5.01 h 5.77 q 3.77,0 3.77,-2.51 v 0 q 0,-1.37 -0.92,-1.94 -0.92,-0.56 -2.85,-0.56 v 0 z m 0,-10.15 v 5.4 h 5.34 q 1.99,0 2.77,-0.64 0.78,-0.64 0.78,-2.18 v 0 q 0,-2.58 -3.55,-2.58 v 0 z M 35.98,0 h -6.24 v -25.85 h 12.49 q 3.95,0 6.58,2.76 2.62,2.75 2.62,6.95 v 0 q 0,2.76 -1.24,4.99 -1.24,2.23 -3.36,3.36 v 0 L 52.16,0 H 44.4 l -3.88,-6.42 h -4.54 z m 0,-20.06 v 7.87 h 5.34 q 1.6,0 2.72,-1.16 1.12,-1.16 1.12,-2.79 v 0 q 0,-1.6 -1.11,-2.76 -1.11,-1.16 -2.69,-1.16 v 0 z M 62.83,0 h -6.24 v -25.85 h 6.24 z m 4.5,-12.91 v 0 q 0,-2.68 1.06,-5.13 1.06,-2.44 2.9,-4.26 1.83,-1.82 4.47,-2.91 2.63,-1.08 5.6,-1.08 v 0 q 3.64,0 6.61,1.51 2.97,1.51 4.97,4.15 v 0 l -5.38,2.72 q -2.02,-2.54 -6.27,-2.54 v 0 q -3.38,0 -5.53,2.12 -2.15,2.11 -2.15,5.34 v 0 q 0,3.14 2.2,5.38 2.21,2.25 5.55,2.25 v 0 q 4.05,0 6.35,-2.17 v 0 -2.51 h -7.87 v -4.79 h 13.38 v 9.58 q -0.09,0.2 -0.56,0.74 -0.46,0.54 -1.51,1.42 -1.05,0.88 -2.36,1.65 -1.3,0.77 -3.28,1.34 -1.98,0.56 -4.11,0.56 v 0 q -3.12,0 -5.79,-1.11 -2.67,-1.11 -4.46,-2.97 -1.79,-1.85 -2.8,-4.27 -1.02,-2.41 -1.02,-5.02 z M 104.17,0 h -6.24 v -25.85 h 6.24 z m 13.39,-20.06 h -9.14 v -5.79 h 24.62 v 5.79 h -9.17 V 0 h -6.31 z m 27.35,0 h -9.15 v -5.79 h 24.63 v 5.79 h -9.17 V 0 h -6.31 z M 184.43,0 h -19.79 v -25.85 h 19.79 v 5.79 h -13.56 v 4.44 h 11.32 v 5.4 h -11.32 v 4.45 h 13.56 z m 20.28,0 h -6.23 v -25.85 h 6.23 v 11.38 l 9.87,-11.38 h 7.84 L 213.53,-15.42 224.31,0 h -8.09 l -7.07,-10.67 -4.44,4.86 z m 29.71,0 h -6.23 v -25.85 h 6.23 v 10.04 h 11.36 v -10.04 h 6.27 V 0 h -6.27 v -10.04 h -11.36 z m 28.48,0 h -6.6 l 11.05,-25.85 h 6.94 L 285.39,0 h -6.64 l -1.67,-4.03 h -12.47 z m 7.98,-18.78 -4.1,9.65 h 8.13 z m 21.28,9.02 -11.02,-16.09 h 7.18 l 7.03,10.58 6.92,-10.58 h 7.26 l -11.1,16.09 V 0 h -6.27 z M 311.83,0 h -6.61 l 11.06,-25.85 h 6.94 L 334.32,0 h -6.64 l -1.67,-4.03 h -12.47 z m 7.98,-18.78 -4.1,9.65 h 8.12 z m 21.43,-1.28 h -9.15 v -5.79 h 24.62 v 5.79 h -9.16 V 0 h -6.31 z"
       transform="translate(-179.8,12.915)"
       style="opacity:1;fill:#e62020;fill-rule:nonzero;stroke:none;stroke-width:0;stroke-linecap:butt;stroke-linejoin:miter;stroke-miterlimit:4;stroke-dasharray:none;stroke-dashoffset:0;paint-order:stroke;filter:url(#SVGID_8811)" /></g><g
     id="g405-7"
     transform="matrix(1.5745008,0,0,1.5745008,873.24299,296.90772)"><filter
       width="1.4"
       x="-0.2"
       height="1.4"
       y="-0.2"
       id="filter376"><feGaussianBlur
         id="feGaussianBlur362"
         stdDeviation="0"
         in="SourceAlpha" /><feOffset
         id="feOffset364"
         result="oBlur"
         dy="0"
         dx="0" /><feFlood
         id="feFlood366"
         flood-opacity="1"
         flood-color="rgb(0,0,0)" /><feComposite
         id="feComposite368"
         operator="in"
         in2="oBlur" /><feMerge
         id="feMerge374"><feMergeNode
           id="feMergeNode370" /><feMergeNode
           id="feMergeNode372"
           in="SourceGraphic" /></feMerge></filter><path
       inkscape:connector-curvature="0"
       id="path403-3"
       d="M 7.45,0 H 2.36 v -21.09 h 5.09 z m 9.79,0 h -5.09 v -21.09 h 5.64 l 7.35,15.47 7.31,-15.47 h 5.68 V 0 H 33.01 V -10.76 L 27.96,0 h -5.68 l -5.04,-10.76 z m 30.65,0 h -5.08 v -21.09 h 5.63 l 7.35,15.47 7.31,-15.47 h 5.68 V 0 H 63.67 V -10.76 L 58.61,0 h -5.68 l -5.04,-10.76 z m 30.65,0 h -5.08 v -21.09 h 5.08 z m 3.68,-10.54 v 0 q 0,-2.17 0.87,-4.17 0.86,-2 2.36,-3.48 1.5,-1.49 3.64,-2.37 2.15,-0.89 4.58,-0.89 v 0 q 2.96,0 5.38,1.23 2.43,1.24 4.06,3.39 v 0 l -4.39,2.22 q -1.65,-2.07 -5.11,-2.07 v 0 q -2.76,0 -4.52,1.72 -1.75,1.73 -1.75,4.36 v 0 q 0,2.56 1.8,4.39 1.8,1.84 4.53,1.84 v 0 q 3.3,0 5.17,-1.78 v 0 -2.04 h -6.42 v -3.9 h 10.92 v 7.81 q -0.08,0.16 -0.46,0.6 -0.37,0.44 -1.23,1.16 -0.85,0.72 -1.92,1.35 -1.07,0.63 -2.68,1.09 -1.61,0.46 -3.35,0.46 v 0 q -2.55,0 -4.73,-0.91 -2.18,-0.91 -3.64,-2.42 -1.46,-1.52 -2.28,-3.48 -0.83,-1.97 -0.83,-4.11 z M 112.27,0 h -5.09 v -21.09 h 10.19 q 3.22,0 5.37,2.25 2.14,2.25 2.14,5.67 v 0 q 0,2.26 -1.02,4.07 -1.01,1.82 -2.74,2.74 v 0 L 125.47,0 h -6.33 l -3.16,-5.24 h -3.71 z m 0,-16.36 v 6.42 h 4.36 q 1.3,0 2.22,-0.95 0.91,-0.95 0.91,-2.28 v 0 q 0,-1.3 -0.91,-2.25 -0.9,-0.94 -2.19,-0.94 v 0 z M 133.23,0 h -5.39 l 9.03,-21.09 h 5.66 L 151.58,0 h -5.42 l -1.36,-3.28 h -10.17 z m 6.51,-15.32 -3.34,7.87 h 6.63 z m 17.49,-1.04 h -7.47 v -4.73 h 20.09 v 4.73 h -7.48 V 0 h -5.14 z M 178.4,0 h -5.08 v -21.09 h 5.08 z m 3.35,-10.54 v 0 q 0,-2.21 0.85,-4.22 0.86,-2.01 2.31,-3.48 1.45,-1.47 3.47,-2.34 2.01,-0.87 4.23,-0.87 v 0 q 2.2,0 4.22,0.87 2.02,0.87 3.47,2.34 1.46,1.47 2.33,3.49 0.87,2.02 0.87,4.21 v 0 q 0,2.21 -0.86,4.24 -0.87,2.02 -2.33,3.48 -1.46,1.46 -3.48,2.33 -2.02,0.87 -4.22,0.87 v 0 q -2.96,0 -5.47,-1.47 -2.5,-1.47 -3.95,-3.97 -1.44,-2.51 -1.44,-5.48 z m 4.64,0 v 0 q 0,2.58 1.83,4.39 1.82,1.81 4.39,1.81 v 0 q 2.55,0 4.36,-1.81 1.82,-1.81 1.82,-4.39 v 0 q 0,-2.54 -1.82,-4.35 -1.81,-1.82 -4.36,-1.82 v 0 q -2.57,0 -4.39,1.81 -1.83,1.81 -1.83,4.36 z M 211.64,0 h -5.11 v -21.09 h 5.11 l 10.67,12.87 v -12.87 h 5.12 V 0 h -5.12 l -10.67,-12.9 z m 26.7,-5.95 v 0 q 0,-2.74 2.92,-5.49 v 0 q -0.87,-0.81 -1.49,-1.98 -0.61,-1.17 -0.61,-2.46 v 0 q 0,-1.09 0.5,-2.07 0.5,-0.99 1.42,-1.77 0.93,-0.79 2.39,-1.26 1.46,-0.47 3.24,-0.47 v 0 q 1.77,0 3.19,0.46 1.41,0.46 2.28,1.18 0.86,0.71 1.44,1.62 0.57,0.9 0.79,1.73 0.22,0.82 0.22,1.58 v 0 h -4.84 q 0,-0.95 -0.71,-1.72 -0.7,-0.76 -2.08,-0.76 v 0 q -0.97,0 -1.69,0.38 -0.73,0.39 -0.73,1.04 v 0 q 0,1.12 2.51,3.39 v 0 q 3.8,3.36 5.09,4.53 v 0 q 0.15,-0.88 0.15,-2.24 v 0 h 4.83 q 0,3.34 -1.2,5.55 v 0 l 2.23,1.99 -3.5,3.02 -1.8,-1.6 Q 250.42,0.38 247,0.38 v 0 q -3.72,0 -6.19,-1.77 -2.47,-1.76 -2.47,-4.56 z m 5.35,-0.65 v 0 q 0,1.14 0.99,1.85 0.99,0.72 2.53,0.72 v 0 q 1.2,0 2.11,-0.37 v 0 l -4.68,-4.09 q -0.95,0.85 -0.95,1.89 z M 274.2,0 h -5.08 v -21.09 h 10.18 q 3.23,0 5.37,2.25 2.14,2.25 2.14,5.67 v 0 q 0,2.26 -1.01,4.07 -1.02,1.82 -2.74,2.74 v 0 L 287.4,0 h -6.33 l -3.16,-5.24 h -3.71 z m 0,-16.36 v 6.42 h 4.36 q 1.3,0 2.22,-0.95 0.91,-0.95 0.91,-2.28 v 0 q 0,-1.3 -0.9,-2.25 -0.91,-0.94 -2.2,-0.94 v 0 z M 307.17,0 h -16.15 v -21.09 h 16.15 v 4.73 H 296.1 v 3.61 h 9.24 v 4.41 h -9.24 v 3.63 h 11.07 z m 9.2,0 h -5.08 v -21.09 h 16.15 v 4.73 h -11.07 v 4.83 h 9.24 v 4.67 h -9.24 z m 13.97,-10.82 v 0 -10.27 h 5.09 v 10.27 q 0,3.07 1.29,4.77 1.28,1.71 3.67,1.71 v 0 q 2.38,0 3.77,-1.73 1.38,-1.73 1.38,-4.75 v 0 -10.27 h 5.15 v 10.27 q 0,2.57 -0.78,4.69 -0.78,2.12 -2.16,3.53 -1.38,1.42 -3.26,2.2 -1.89,0.78 -4.1,0.78 v 0 q -4.54,0 -7.29,-3.01 -2.76,-3.02 -2.76,-8.19 z m 22.97,0.28 v 0 q 0,-2.17 0.86,-4.17 0.86,-2 2.36,-3.48 1.5,-1.49 3.65,-2.37 2.15,-0.89 4.57,-0.89 v 0 q 2.97,0 5.39,1.23 2.42,1.24 4.05,3.39 v 0 l -4.38,2.22 q -1.65,-2.07 -5.12,-2.07 v 0 q -2.76,0 -4.51,1.72 -1.76,1.73 -1.76,4.36 v 0 q 0,2.56 1.8,4.39 1.8,1.84 4.53,1.84 v 0 q 3.3,0 5.18,-1.78 v 0 -2.04 h -6.42 v -3.9 h 10.91 v 7.81 q -0.07,0.16 -0.45,0.6 -0.38,0.44 -1.24,1.16 -0.85,0.72 -1.92,1.35 -1.07,0.63 -2.68,1.09 -1.61,0.46 -3.35,0.46 v 0 q -2.54,0 -4.72,-0.91 -2.18,-0.91 -3.64,-2.42 -1.46,-1.52 -2.29,-3.48 -0.82,-1.97 -0.82,-4.11 z M 394.42,0 h -16.15 v -21.09 h 16.15 v 4.73 h -11.07 v 3.61 h 9.24 v 4.41 h -9.24 v 3.63 h 11.07 z m 20.27,0 h -16.16 v -21.09 h 16.16 v 4.73 h -11.07 v 3.61 h 9.23 v 4.41 h -9.23 v 3.63 h 11.07 z m 10.42,-10.7 v 0 q 0,-2.18 0.87,-4.15 0.86,-1.97 2.36,-3.42 1.5,-1.45 3.63,-2.32 2.14,-0.86 4.56,-0.86 v 0 q 3.3,0 5.88,1.42 2.58,1.41 4.03,3.85 v 0 l -4.31,2.51 q -0.77,-1.48 -2.21,-2.34 -1.44,-0.85 -3.39,-0.85 v 0 q -2.74,0 -4.51,1.76 -1.76,1.76 -1.76,4.4 v 0 q 0,1.66 0.79,3.1 0.79,1.44 2.23,2.32 1.45,0.88 3.25,0.88 v 0 q 1.87,0 3.31,-0.87 1.43,-0.86 2.23,-2.33 v 0 l 4.31,2.48 q -1.48,2.49 -4.05,3.99 -2.58,1.51 -5.8,1.51 v 0 q -2.44,0 -4.57,-0.86 -2.12,-0.87 -3.62,-2.34 -1.5,-1.48 -2.36,-3.52 -0.87,-2.05 -0.87,-4.36 z m 22.69,0.16 v 0 q 0,-2.21 0.86,-4.22 0.86,-2.01 2.31,-3.48 1.45,-1.47 3.46,-2.34 2.02,-0.87 4.24,-0.87 v 0 q 2.2,0 4.22,0.87 2.02,0.87 3.47,2.34 1.46,1.47 2.33,3.49 0.87,2.02 0.87,4.21 v 0 q 0,2.21 -0.87,4.24 -0.86,2.02 -2.32,3.48 -1.46,1.46 -3.48,2.33 -2.02,0.87 -4.22,0.87 v 0 q -2.96,0 -5.47,-1.47 -2.5,-1.47 -3.95,-3.97 -1.45,-2.51 -1.45,-5.48 z m 4.65,0 v 0 q 0,2.58 1.83,4.39 1.82,1.81 4.39,1.81 v 0 q 2.55,0 4.36,-1.81 1.82,-1.81 1.82,-4.39 v 0 q 0,-2.54 -1.82,-4.35 -1.81,-1.82 -4.36,-1.82 v 0 q -2.57,0 -4.39,1.81 -1.83,1.81 -1.83,4.36 z M 477.7,0 h -5.12 v -21.09 h 5.12 l 10.67,12.87 v -12.87 h 5.12 V 0 h -5.12 L 477.7,-12.9 Z m 19.24,-7.37 v 0 h 5.05 q 0.02,0.13 0.07,0.36 0.06,0.23 0.35,0.8 0.3,0.58 0.74,1.02 0.45,0.44 1.36,0.8 0.91,0.36 2.07,0.36 v 0 q 1.57,0 2.34,-0.55 0.76,-0.55 0.76,-1.31 v 0 q 0,-0.39 -0.22,-0.71 -0.22,-0.32 -0.51,-0.53 -0.3,-0.21 -0.86,-0.42 -0.56,-0.2 -0.98,-0.31 -0.42,-0.12 -1.15,-0.3 v 0 q -3.01,-0.71 -4.44,-1.3 v 0 q -4.26,-1.77 -4.26,-5.3 v 0 q 0,-1.89 1.14,-3.43 1.14,-1.53 3.1,-2.4 1.96,-0.86 4.34,-0.86 v 0 q 1.97,0 3.61,0.64 1.64,0.63 2.66,1.65 1.02,1.03 1.58,2.26 0.55,1.23 0.55,2.49 v 0 h -5.06 q 0,-0.89 -0.94,-1.69 -0.95,-0.79 -2.46,-0.79 v 0 q -1.26,0 -2.32,0.52 -1.06,0.52 -1.06,1.37 v 0 q 0,0.71 0.92,1.13 0.91,0.41 3.44,1.06 v 0 q 2.88,0.75 4.15,1.32 v 0 q 3.45,1.56 3.81,4.54 v 0 q 0.05,0.38 0.05,0.77 v 0 q 0,2.99 -2.35,4.77 -2.36,1.79 -6.11,1.79 v 0 q -1.91,0 -3.51,-0.49 -1.59,-0.5 -2.65,-1.29 -1.06,-0.79 -1.8,-1.82 -0.75,-1.03 -1.08,-2.09 -0.33,-1.05 -0.33,-2.06 z m 20.48,-3.45 v 0 -10.27 h 5.08 v 10.27 q 0,3.07 1.29,4.77 1.29,1.71 3.68,1.71 v 0 q 2.38,0 3.76,-1.73 1.39,-1.73 1.39,-4.75 v 0 -10.27 h 5.14 v 10.27 q 0,2.57 -0.78,4.69 -0.78,2.12 -2.15,3.53 -1.38,1.42 -3.27,2.2 -1.88,0.78 -4.09,0.78 v 0 q -4.54,0 -7.3,-3.01 -2.75,-3.02 -2.75,-8.19 z M 557.56,0 h -16.15 v -21.09 h 5.09 v 16.38 h 11.06 z m 5.5,-16.36 h -7.47 v -4.73 h 20.09 v 4.73 H 568.2 V 0 h -5.14 z M 584.23,0 h -5.08 v -21.09 h 5.08 z m 9.51,0 h -5.12 v -21.09 h 5.12 l 10.67,12.87 v -12.87 h 5.12 V 0 h -5.12 l -10.67,-12.9 z m 19.18,-10.54 v 0 q 0,-2.17 0.86,-4.17 0.86,-2 2.36,-3.48 1.5,-1.49 3.65,-2.37 2.15,-0.89 4.57,-0.89 v 0 q 2.97,0 5.39,1.23 2.42,1.24 4.05,3.39 v 0 l -4.38,2.22 q -1.65,-2.07 -5.12,-2.07 v 0 q -2.76,0 -4.51,1.72 -1.76,1.73 -1.76,4.36 v 0 q 0,2.56 1.8,4.39 1.8,1.84 4.53,1.84 v 0 q 3.3,0 5.18,-1.78 v 0 -2.04 h -6.42 v -3.9 h 10.91 v 7.81 q -0.07,0.16 -0.45,0.6 -0.38,0.44 -1.24,1.16 -0.85,0.72 -1.92,1.35 -1.07,0.63 -2.68,1.09 -1.61,0.46 -3.35,0.46 v 0 q -2.54,0 -4.72,-0.91 -2.18,-0.91 -3.64,-2.42 -1.46,-1.52 -2.29,-3.48 -0.82,-1.97 -0.82,-4.11 z"
       transform="translate(-318.195,10.535)"
       style="opacity:1;fill:#e62020;fill-rule:nonzero;stroke:none;stroke-width:0;stroke-linecap:butt;stroke-linejoin:miter;stroke-miterlimit:4;stroke-dasharray:none;stroke-dashoffset:0;paint-order:stroke;filter:url(#SVGID_8812-7)" /></g></g></svg>